<?xml version="1.0" encoding="utf-8" standalone="no"?><!DOCTYPE svg PUBLIC "-//W3C//DTD SVG 20010904//EN" "http://www.w3.org/TR/2001/REC-SVG-20010904/DTD/svg10.dtd"><svg xmlns="http://www.w3.org/2000/svg" width="255" height="270" xmlns:xlink="http://www.w3.org/1999/xlink"><source><![CDATA[Client->Server: GET
Server-->Client: <html>
Client->Server: POST { json }
Server-->Client: 201 Created]]></source><desc style="-webkit-tap-highlight-color: rgba(0, 0, 0, 0);">Created with Raphaël 2.1.2</desc><defs style="-webkit-tap-highlight-color: rgba(0, 0, 0, 0);"><path stroke-linecap="round" d="M5,0 0,2.5 5,5z" id="raphael-marker-block" style="-webkit-tap-highlight-color: rgba(0, 0, 0, 0);"></path><marker id="raphael-marker-endblock55-obj3190" markerHeight="5" markerWidth="5" orient="auto" refX="2.5" refY="2.5" style="-webkit-tap-highlight-color: rgba(0, 0, 0, 0);"><use xmlns:xlink="http://www.w3.org/1999/xlink" xlink:href="#raphael-marker-block" transform="rotate(180 2.5 2.5) scale(1,1)" stroke-width="1.0000" fill="#000" stroke="none" style="-webkit-tap-highlight-color: rgba(0, 0, 0, 0);"></use></marker><marker id="raphael-marker-endblock55-obj3193" markerHeight="5" markerWidth="5" orient="auto" refX="2.5" refY="2.5" style="-webkit-tap-highlight-color: rgba(0, 0, 0, 0);"><use xmlns:xlink="http://www.w3.org/1999/xlink" xlink:href="#raphael-marker-block" transform="rotate(180 2.5 2.5) scale(1,1)" stroke-width="1.0000" fill="#000" stroke="none" style="-webkit-tap-highlight-color: rgba(0, 0, 0, 0);"></use></marker><marker id="raphael-marker-endblock55-obj3196" markerHeight="5" markerWidth="5" orient="auto" refX="2.5" refY="2.5" style="-webkit-tap-highlight-color: rgba(0, 0, 0, 0);"><use xmlns:xlink="http://www.w3.org/1999/xlink" xlink:href="#raphael-marker-block" transform="rotate(180 2.5 2.5) scale(1,1)" stroke-width="1.0000" fill="#000" stroke="none" style="-webkit-tap-highlight-color: rgba(0, 0, 0, 0);"></use></marker><marker id="raphael-marker-endblock55-obj3199" markerHeight="5" markerWidth="5" orient="auto" refX="2.5" refY="2.5" style="-webkit-tap-highlight-color: rgba(0, 0, 0, 0);"><use xmlns:xlink="http://www.w3.org/1999/xlink" xlink:href="#raphael-marker-block" transform="rotate(180 2.5 2.5) scale(1,1)" stroke-width="1.0000" fill="#000" stroke="none" style="-webkit-tap-highlight-color: rgba(0, 0, 0, 0);"></use></marker></defs><path fill="#ffffff" stroke="#000000" d="M10,20C26.596659403992735,22.836464125057415,10.789502221578939,17.163535874942585,80.91160312643538,20C79.56748148658365,32.86512108397075,82.25572476628712,49.70944964490474,80.91160312643538,53.60304099629341C32.34852542782448,50.76657687123599,32.98562978517152,56.43950512135083,10,53.60304099629341C8.655878360148265,46.74094529830265,11.344121639851735,35.53529461773003,10,20" stroke-width="2" style="-webkit-tap-highlight-color: rgba(0, 0, 0, 0);"></path><rect x="20" y="29.999999999999996" width="50.91160312643538" height="13.603040996293405" rx="0" ry="0" fill="#ffffff" stroke="none" style="-webkit-tap-highlight-color: rgba(0, 0, 0, 0);"></rect><path fill="#000000" stroke="none" d="M21.88938090421316,38.301905193824275C21.356047570879827,41.635238527157604,26.156047570879824,41.67968297160205,29.26715868199094,41.45746074937983C29.26715868199094,41.45746074937983,35.71160312643538,41.013016304935384,35.71160312643538,41.013016304935384C36.111603126435384,41.10190519382427,36.111603126435384,41.235238527157605,36.111603126435384,41.81301630493538C34.46715868199094,42.613016304935385,32.3338253486576,43.05746074937983,31.26715868199094,42.79079408271316C30.46715868199094,43.235238527157605,29.17826979310205,43.235238527157605,28.11160312643538,43.235238527157605C26.822714237546496,43.235238527157605,25.08938090421316,43.27968297160205,23.444936459768716,42.74634963826872C23.17826979310205,42.701905193824274,23.000492015324273,42.613016304935385,23.000492015324273,42.390794082713164C21.533825348657604,41.81301630493538,20.86715868199094,40.924127416046495,20.067158681990936,39.76857186049094C19.222714237546494,34.701905193824274,26.55604757087983,33.10190519382427,30.02271423754649,31.90190519382427C31.57826979310205,31.90190519382427,33.93382534865761,30.524127416046497,34.42271423754649,32.21301630493538C34.37826979310205,33.50190519382427,32.24493645976871,32.83523852715761,31.044936459768717,33.45746074937983C28.600492015324267,33.81301630493538,25.933825348657603,35.013016304935384,23.26715868199094,36.613016304935385C22.689380904213163,36.96857186049094,22.244936459768713,37.546349638268715,21.88938090421316,38.301905193824275C21.88938090421316,38.301905193824275,21.88938090421316,38.301905193824275,21.88938090421316,38.301905193824275M39.267158681990935,30.035238527157603C40.20049201532426,29.768571860490937,40.91160312643538,31.05746074937983,40.600492015324264,32.47968297160205C40.15604757087982,34.74634963826872,39.356047570879824,38.47968297160205,39.356047570879824,41.72412741604649C39.356047570879824,42.21301630493539,39.62271423754649,43.324127416046494,38.77826979310204,43.36857186049094C37.48938090421315,43.14634963826872,37.44493645976871,41.235238527157605,37.66715868199093,39.67968297160205C37.66715868199093,39.67968297160205,38.91160312643538,31.81301630493538,38.91160312643538,31.81301630493538C38.644936459768715,31.05746074937983,38.95604757087982,30.524127416046497,39.267158681990935,30.035238527157603C39.267158681990935,30.035238527157603,39.267158681990935,30.035238527157603,39.267158681990935,30.035238527157603M43.62271423754649,34.07968297160205C43.93382534865759,34.87968297160205,44.02271423754648,35.10190519382427,43.40049201532426,35.76857186049094C42.378269793102035,35.50190519382427,42.467158681990924,34.96857186049094,42.91160312643538,34.168571860490935C43.00049201532427,34.168571860490935,43.267158681990935,34.12412741604649,43.62271423754649,34.07968297160205C43.62271423754649,34.07968297160205,43.62271423754649,34.07968297160205,43.62271423754649,34.07968297160205M42.378269793102035,43.05746074937983C41.57826979310204,42.1241274160465,42.02271423754648,39.81301630493538,42.3338253486576,38.34634963826872C42.6449364597687,37.90190519382427,43.222714237546484,37.99079408271316,43.356047570879824,38.613016304935385C43.31160312643537,40.21301630493539,43.66715868199093,41.81301630493538,43.267158681990935,43.235238527157605C42.91160312643538,43.324127416046494,42.91160312643538,43.235238527157605,42.378269793102035,43.05746074937983C42.378269793102035,43.05746074937983,42.378269793102035,43.05746074937983,42.378269793102035,43.05746074937983M44.600492015324264,40.83523852715761C44.600492015324264,38.25746074937983,46.86715868199093,37.67968297160205,49.48938090421315,37.546349638268715C50.95604757087982,37.50190519382427,51.48938090421315,38.25746074937983,52.11160312643537,39.10190519382427C52.15604757087982,39.72412741604649,52.20049201532426,40.83523852715761,51.80049201532427,40.96857186049094C50.733825348657604,40.87968297160205,48.55604757087983,41.546349638268715,47.40049201532426,41.45746074937983C47.31160312643537,41.546349638268715,47.31160312643537,41.59079408271316,47.31160312643537,41.59079408271316C47.31160312643537,41.72412741604649,47.844936459768704,41.94634963826872,48.95604757087982,42.25746074937983C49.889380904213155,42.25746074937983,52.02271423754648,42.65746074937983,50.3338253486576,43.235238527157605C49.93382534865759,43.857460749379825,48.82271423754649,43.50190519382427,47.844936459768704,43.50190519382427C46.644936459768715,43.27968297160205,44.600492015324264,42.25746074937983,44.600492015324264,40.83523852715761C44.600492015324264,40.83523852715761,44.600492015324264,40.83523852715761,44.600492015324264,40.83523852715761M49.889380904213155,38.83523852715761C48.91160312643538,38.924127416046495,46.86715868199093,39.05746074937983,47.00049201532427,39.990794082713165C48.06715868199093,39.90190519382427,49.93382534865759,40.21301630493539,50.511603126435375,39.72412741604649C50.28938090421315,39.14634963826872,50.467158681990924,39.14634963826872,49.889380904213155,38.83523852715761C49.889380904213155,38.83523852715761,49.889380904213155,38.83523852715761,49.889380904213155,38.83523852715761M57.889380904213155,37.324127416046494C59.5338253486576,37.59079408271316,60.6449364597687,39.72412741604649,60.6449364597687,42.25746074937983C60.6449364597687,43.67968297160205,59.93382534865759,43.36857186049094,59.267158681990935,43.013016304935384C58.467158681990924,41.67968297160205,59.04493645976871,41.013016304935384,58.28938090421315,39.235238527157605C56.644936459768715,38.65746074937983,55.133825348657595,41.67968297160205,54.20049201532426,42.1241274160465C53.31160312643537,41.990794082713165,52.467158681990924,40.390794082713164,53.267158681990935,39.36857186049094C53.356047570879824,38.83523852715761,53.40049201532426,38.701905193824274,53.756047570879815,38.0352385271576C54.28938090421315,37.67968297160205,54.644936459768715,38.5241274160465,55.04493645976871,38.56857186049094C55.04493645976871,38.56857186049094,57.889380904213155,37.324127416046494,57.889380904213155,37.324127416046494M64.91160312643538,36.701905193824274C65.35604757087984,34.87968297160205,66.46715868199094,31.101905193824273,67.80049201532428,30.74634963826872C67.97826979310206,30.790794082713163,68.86715868199094,31.59079408271316,68.28938090421316,32.34634963826872C67.53382534865761,33.324127416046494,67.00049201532428,34.87968297160205,66.68938090421317,36.96857186049094C67.84493645976872,37.324127416046494,68.91160312643538,36.65746074937983,69.9338253486576,37.19079408271316C70.55604757087983,37.19079408271316,70.91160312643538,37.324127416046494,70.91160312643538,37.59079408271316C70.86715868199094,38.43523852715761,68.95604757087983,38.390794082713164,68.37826979310205,38.613016304935385C67.9338253486576,38.65746074937983,66.33382534865761,38.613016304935385,65.97826979310206,39.05746074937983C65.53382534865761,40.1241274160465,65.80049201532428,42.03523852715761,65.08938090421316,43.41301630493538C64.15604757087984,43.27968297160205,63.93382534865761,43.45746074937983,63.93382534865761,42.5241274160465C63.93382534865761,42.1241274160465,64.0227142375465,40.924127416046495,64.28938090421316,38.924127416046495C63.622714237546504,38.34634963826872,60.689380904213166,39.324127416046494,60.867158681990944,37.72412741604649C61.04493645976872,36.0352385271576,64.0227142375465,37.99079408271316,64.91160312643538,36.701905193824274C64.91160312643538,36.701905193824274,64.91160312643538,36.701905193824274,64.91160312643538,36.701905193824274" style="-webkit-tap-highlight-color: rgba(0, 0, 0, 0);"></path><path fill="#ffffff" stroke="#000000" d="M10,216.85240289011145C41.203919747332876,214.01593876505405,40.408110464032745,219.68886701516885,80.91160312643538,216.85240289011145C82.25572476628712,240.7816112514344,79.56748148658365,222.3480083837842,80.91160312643538,250.45544388640485C65.87143205541454,247.61897976134745,19.78060870111352,253.29190801146225,10,250.45544388640485C11.344121639851735,231.4091613819684,8.655878360148265,243.54775103383565,10,216.85240289011145" stroke-width="2" style="-webkit-tap-highlight-color: rgba(0, 0, 0, 0);"></path><rect x="20" y="226.85240289011145" width="50.91160312643538" height="13.603040996293402" rx="0" ry="0" fill="#ffffff" stroke="none" style="-webkit-tap-highlight-color: rgba(0, 0, 0, 0);"></rect><path fill="#000000" stroke="none" d="M21.88938090421316,235.15430808393577C21.356047570879827,238.48764141726912,26.156047570879824,238.53208586171354,29.26715868199094,238.30986363949134C29.26715868199094,238.30986363949134,35.71160312643538,237.86541919504688,35.71160312643538,237.86541919504688C36.111603126435384,237.95430808393576,36.111603126435384,238.0876414172691,36.111603126435384,238.6654191950469C34.46715868199094,239.46541919504688,32.3338253486576,239.90986363949133,31.26715868199094,239.64319697282465C30.46715868199094,240.0876414172691,29.17826979310205,240.0876414172691,28.11160312643538,240.0876414172691C26.822714237546496,240.0876414172691,25.08938090421316,240.13208586171353,23.444936459768716,239.5987525283802C23.17826979310205,239.55430808393578,23.000492015324273,239.46541919504688,23.000492015324273,239.24319697282465C21.533825348657604,238.6654191950469,20.86715868199094,237.77653030615798,20.067158681990936,236.62097475060244C19.222714237546494,231.55430808393578,26.55604757087983,229.95430808393576,30.02271423754649,228.75430808393577C31.57826979310205,228.75430808393577,33.93382534865761,227.376530306158,34.42271423754649,229.06541919504687C34.37826979310205,230.35430808393576,32.24493645976871,229.6876414172691,31.044936459768717,230.30986363949134C28.600492015324267,230.6654191950469,25.933825348657603,231.86541919504688,23.26715868199094,233.46541919504688C22.689380904213163,233.82097475060243,22.244936459768713,234.39875252838021,21.88938090421316,235.15430808393577C21.88938090421316,235.15430808393577,21.88938090421316,235.15430808393577,21.88938090421316,235.15430808393577M39.267158681990935,226.8876414172691C40.20049201532426,226.62097475060244,40.91160312643538,227.90986363949133,40.600492015324264,229.33208586171355C40.15604757087982,231.5987525283802,39.356047570879824,235.33208586171355,39.356047570879824,238.576530306158C39.356047570879824,239.06541919504687,39.62271423754649,240.17653030615799,38.77826979310204,240.22097475060244C37.48938090421315,239.9987525283802,37.44493645976871,238.0876414172691,37.66715868199093,236.53208586171354C37.66715868199093,236.53208586171354,38.91160312643538,228.6654191950469,38.91160312643538,228.6654191950469C38.644936459768715,227.90986363949133,38.95604757087982,227.376530306158,39.267158681990935,226.8876414172691C39.267158681990935,226.8876414172691,39.267158681990935,226.8876414172691,39.267158681990935,226.8876414172691M43.62271423754649,230.93208586171355C43.93382534865759,231.73208586171356,44.02271423754648,231.95430808393576,43.40049201532426,232.62097475060244C42.378269793102035,232.35430808393576,42.467158681990924,231.82097475060243,42.91160312643538,231.02097475060245C43.00049201532427,231.02097475060245,43.267158681990935,230.976530306158,43.62271423754649,230.93208586171355C43.62271423754649,230.93208586171355,43.62271423754649,230.93208586171355,43.62271423754649,230.93208586171355M42.378269793102035,239.90986363949133C41.57826979310204,238.976530306158,42.02271423754648,236.6654191950469,42.3338253486576,235.19875252838023C42.6449364597687,234.75430808393577,43.222714237546484,234.84319697282467,43.356047570879824,235.46541919504688C43.31160312643537,237.06541919504687,43.66715868199093,238.6654191950469,43.267158681990935,240.0876414172691C42.91160312643538,240.17653030615799,42.91160312643538,240.0876414172691,42.378269793102035,239.90986363949133C42.378269793102035,239.90986363949133,42.378269793102035,239.90986363949133,42.378269793102035,239.90986363949133M44.600492015324264,237.6876414172691C44.600492015324264,235.10986363949132,46.86715868199093,234.53208586171354,49.48938090421315,234.39875252838021C50.95604757087982,234.35430808393576,51.48938090421315,235.10986363949132,52.11160312643537,235.95430808393576C52.15604757087982,236.576530306158,52.20049201532426,237.6876414172691,51.80049201532427,237.82097475060243C50.733825348657604,237.73208586171356,48.55604757087983,238.39875252838021,47.40049201532426,238.30986363949134C47.31160312643537,238.39875252838021,47.31160312643537,238.44319697282467,47.31160312643537,238.44319697282467C47.31160312643537,238.576530306158,47.844936459768704,238.79875252838022,48.95604757087982,239.10986363949132C49.889380904213155,239.10986363949132,52.02271423754648,239.50986363949133,50.3338253486576,240.0876414172691C49.93382534865759,240.70986363949132,48.82271423754649,240.35430808393576,47.844936459768704,240.35430808393576C46.644936459768715,240.13208586171353,44.600492015324264,239.10986363949132,44.600492015324264,237.6876414172691C44.600492015324264,237.6876414172691,44.600492015324264,237.6876414172691,44.600492015324264,237.6876414172691M49.889380904213155,235.6876414172691C48.91160312643538,235.77653030615798,46.86715868199093,235.90986363949133,47.00049201532427,236.84319697282467C48.06715868199093,236.75430808393577,49.93382534865759,237.06541919504687,50.511603126435375,236.576530306158C50.28938090421315,235.9987525283802,50.467158681990924,235.9987525283802,49.889380904213155,235.6876414172691C49.889380904213155,235.6876414172691,49.889380904213155,235.6876414172691,49.889380904213155,235.6876414172691M57.889380904213155,234.17653030615799C59.5338253486576,234.44319697282467,60.6449364597687,236.576530306158,60.6449364597687,239.10986363949132C60.6449364597687,240.53208586171354,59.93382534865759,240.22097475060244,59.267158681990935,239.86541919504688C58.467158681990924,238.53208586171354,59.04493645976871,237.86541919504688,58.28938090421315,236.0876414172691C56.644936459768715,235.50986363949133,55.133825348657595,238.53208586171354,54.20049201532426,238.976530306158C53.31160312643537,238.84319697282467,52.467158681990924,237.24319697282465,53.267158681990935,236.22097475060244C53.356047570879824,235.6876414172691,53.40049201532426,235.55430808393578,53.756047570879815,234.8876414172691C54.28938090421315,234.53208586171354,54.644936459768715,235.376530306158,55.04493645976871,235.42097475060243C55.04493645976871,235.42097475060243,57.889380904213155,234.17653030615799,57.889380904213155,234.17653030615799M64.91160312643538,233.55430808393578C65.35604757087984,231.73208586171356,66.46715868199094,227.95430808393576,67.80049201532428,227.5987525283802C67.97826979310206,227.64319697282465,68.86715868199094,228.44319697282467,68.28938090421316,229.19875252838023C67.53382534865761,230.17653030615799,67.00049201532428,231.73208586171356,66.68938090421317,233.82097475060243C67.84493645976872,234.17653030615799,68.91160312643538,233.50986363949133,69.9338253486576,234.04319697282466C70.55604757087983,234.04319697282466,70.91160312643538,234.17653030615799,70.91160312643538,234.44319697282467C70.86715868199094,235.2876414172691,68.95604757087983,235.24319697282465,68.37826979310205,235.46541919504688C67.9338253486576,235.50986363949133,66.33382534865761,235.46541919504688,65.97826979310206,235.90986363949133C65.53382534865761,236.976530306158,65.80049201532428,238.8876414172691,65.08938090421316,240.2654191950469C64.15604757087984,240.13208586171353,63.93382534865761,240.30986363949134,63.93382534865761,239.376530306158C63.93382534865761,238.976530306158,64.0227142375465,237.77653030615798,64.28938090421316,235.77653030615798C63.622714237546504,235.19875252838023,60.689380904213166,236.17653030615799,60.867158681990944,234.576530306158C61.04493645976872,232.8876414172691,64.0227142375465,234.84319697282467,64.91160312643538,233.55430808393578C64.91160312643538,233.55430808393578,64.91160312643538,233.55430808393578,64.91160312643538,233.55430808393578" style="-webkit-tap-highlight-color: rgba(0, 0, 0, 0);"></path><path fill="none" stroke="#000000" d="M45.45580156321769,53.60304099629341C38.92582708746497,71.15320139020993,51.985776038970414,186.60894390064607,45.45580156321769,216.85240289011145" stroke-width="2" style="-webkit-tap-highlight-color: rgba(0, 0, 0, 0);"></path><path fill="#ffffff" stroke="#000000" d="M148.39647417941467,20C181.16258576644128,16.916803254674974,190.0888195515875,23.083196745325026,225.47639281254035,20C226.8205144523921,43.89834601379401,224.1322711726886,40.638606866695014,225.47639281254035,53.60304099629341C166.67871397869678,56.686237741618434,202.42663060183418,50.51984425096838,148.39647417941467,53.60304099629341C149.74059581926642,45.67328992748876,147.05235253956292,35.915975453704135,148.39647417941467,20" stroke-width="2" style="-webkit-tap-highlight-color: rgba(0, 0, 0, 0);"></path><rect x="158.39647417941464" y="30.59539704135658" width="57.079918633125686" height="12.412246913580244" rx="0" ry="0" fill="#ffffff" stroke="none" style="-webkit-tap-highlight-color: rgba(0, 0, 0, 0);"></rect><path fill="#000000" stroke="none" d="M158.9660435974647,42.63984148580103C158.6549324863536,42.50650815246769,157.98826581968692,41.839841485801024,158.74382137524248,41.66206370802325C161.7660435974647,40.99539704135658,164.03271026413137,40.23984148580102,165.5882658196869,39.66206370802325C167.8549324863536,38.817619263578806,167.32159915302026,38.150952596912134,165.72159915302026,37.306508152467686C163.6771547085758,36.19539704135658,162.07715470857582,35.97317481913436,160.34382137524247,34.46206370802325C158.8771547085758,33.17317481913436,158.12159915302024,32.906508152467694,159.23271026413136,31.88428593024547C160.8771547085758,30.99539704135658,164.52159915302025,30.59539704135658,167.2771547085758,30.59539704135658C168.5660435974647,30.59539704135658,169.23271026413136,30.862063708023246,169.23271026413136,31.395397041356578C168.83271026413138,32.55095259691214,166.47715470857582,31.662063708023247,164.61048804190915,32.0176192635788C163.8549324863536,32.10650815246769,161.41048804190913,32.284285930245474,160.52159915302025,32.72873037468992C162.1660435974647,35.08428593024547,166.38826581968692,35.306508152467686,168.52159915302025,37.66206370802325C168.8771547085758,38.062063708023246,169.01048804190916,38.55095259691214,169.01048804190916,38.99539704135658C168.83271026413138,39.750952596912136,167.98826581968692,40.55095259691214,167.14382137524248,40.50650815246769C166.21048804190914,41.2176192635788,166.38826581968692,40.55095259691214,164.9660435974647,41.26206370802325C164.34382137524247,41.57317481913436,163.14382137524248,41.66206370802325,162.47715470857582,42.150952596912134C161.3660435974647,42.0176192635788,160.29937693079802,42.59539704135658,158.9660435974647,42.63984148580103C158.9660435974647,42.63984148580103,158.9660435974647,42.63984148580103,158.9660435974647,42.63984148580103M168.9660435974647,40.23984148580102C168.9660435974647,37.66206370802325,171.23271026413138,37.08428593024547,173.8549324863536,36.95095259691213C175.32159915302026,36.906508152467694,175.8549324863536,37.66206370802325,176.47715470857582,38.50650815246769C176.52159915302025,39.12873037468991,176.5660435974647,40.23984148580102,176.1660435974647,40.37317481913436C175.09937693079803,40.284285930245474,172.92159915302025,40.95095259691213,171.76604359746472,40.86206370802324C171.6771547085758,40.95095259691213,171.6771547085758,40.99539704135658,171.6771547085758,40.99539704135658C171.6771547085758,41.12873037468991,172.21048804190914,41.35095259691214,173.32159915302026,41.66206370802325C174.2549324863536,41.66206370802325,176.38826581968692,42.062063708023246,174.69937693079805,42.63984148580103C174.29937693079805,43.26206370802325,173.18826581968693,42.906508152467694,172.21048804190914,42.906508152467694C171.01048804190916,42.684285930245466,168.9660435974647,41.66206370802325,168.9660435974647,40.23984148580102C168.9660435974647,40.23984148580102,168.9660435974647,40.23984148580102,168.9660435974647,40.23984148580102M174.2549324863536,38.23984148580102C173.2771547085758,38.32873037468991,171.23271026413138,38.46206370802325,171.3660435974647,39.39539704135658C172.43271026413137,39.306508152467686,174.29937693079805,39.6176192635788,174.87715470857583,39.12873037468991C174.6549324863536,38.55095259691214,174.83271026413138,38.55095259691214,174.2549324863536,38.23984148580102C174.2549324863536,38.23984148580102,174.2549324863536,38.23984148580102,174.2549324863536,38.23984148580102M187.63271026413136,37.57317481913436C187.72159915302024,38.55095259691214,187.8549324863536,38.0176192635788,187.01048804190913,38.59539704135658C183.7660435974647,38.284285930245474,179.63271026413136,37.57317481913436,179.2771547085758,41.08428593024547C178.92159915302025,41.35095259691214,179.14382137524248,41.97317481913436,178.92159915302025,42.684285930245466C177.63271026413136,43.12873037468991,177.14382137524248,42.284285930245474,177.45493248635358,40.63984148580103C177.72159915302024,39.26206370802325,177.7660435974647,37.57317481913436,178.8771547085758,38.19539704135658C181.45493248635358,36.55095259691214,181.81048804190914,36.32873037468991,186.65493248635357,37.35095259691214C186.7882658196869,37.57317481913436,187.32159915302026,37.528730374689914,187.63271026413136,37.57317481913436C187.63271026413136,37.57317481913436,187.63271026413136,37.57317481913436,187.63271026413136,37.57317481913436M188.12159915302027,37.12873037468991C188.12159915302027,37.12873037468991,190.43271026413137,40.284285930245474,190.43271026413137,40.284285930245474C192.29937693079805,39.57317481913436,193.5438213752425,37.88428593024547,195.9438213752425,37.395397041356574C196.16604359746472,37.57317481913436,196.29937693079805,37.70650815246769,196.29937693079805,37.88428593024547C195.9438213752425,38.72873037468992,196.12159915302027,38.23984148580102,194.83271026413138,39.306508152467686C194.83271026413138,39.35095259691214,194.78826581968693,39.439841485801026,194.78826581968693,39.528730374689914C192.07715470857582,41.528730374689914,190.6549324863536,42.55095259691214,190.47715470857582,42.55095259691214C188.69937693079805,41.88428593024547,188.2549324863536,39.35095259691214,187.4549324863536,38.10650815246769C187.72159915302026,37.48428593024547,187.89937693079804,37.12873037468991,188.12159915302027,37.12873037468991C188.12159915302027,37.12873037468991,188.12159915302027,37.12873037468991,188.12159915302027,37.12873037468991M196.74382137524248,40.23984148580102C196.74382137524248,37.66206370802325,199.01048804190916,37.08428593024547,201.63271026413136,36.95095259691213C203.09937693079803,36.906508152467694,203.63271026413136,37.66206370802325,204.2549324863536,38.50650815246769C204.29937693079802,39.12873037468991,204.34382137524247,40.23984148580102,203.94382137524246,40.37317481913436C202.8771547085758,40.284285930245474,200.69937693079802,40.95095259691213,199.5438213752425,40.86206370802324C199.45493248635358,40.95095259691213,199.45493248635358,40.99539704135658,199.45493248635358,40.99539704135658C199.45493248635358,41.12873037468991,199.98826581968692,41.35095259691214,201.09937693079803,41.66206370802325C202.03271026413137,41.66206370802325,204.1660435974647,42.062063708023246,202.47715470857582,42.63984148580103C202.07715470857582,43.26206370802325,200.9660435974647,42.906508152467694,199.98826581968692,42.906508152467694C198.78826581968693,42.684285930245466,196.74382137524248,41.66206370802325,196.74382137524248,40.23984148580102C196.74382137524248,40.23984148580102,196.74382137524248,40.23984148580102,196.74382137524248,40.23984148580102M202.03271026413137,38.23984148580102C201.05493248635358,38.32873037468991,199.01048804190916,38.46206370802325,199.14382137524248,39.39539704135658C200.21048804190914,39.306508152467686,202.07715470857582,39.6176192635788,202.6549324863536,39.12873037468991C202.43271026413137,38.55095259691214,202.61048804190915,38.55095259691214,202.03271026413137,38.23984148580102C202.03271026413137,38.23984148580102,202.03271026413137,38.23984148580102,202.03271026413137,38.23984148580102M215.41048804190913,37.57317481913436C215.499376930798,38.55095259691214,215.63271026413136,38.0176192635788,214.7882658196869,38.59539704135658C211.54382137524246,38.284285930245474,207.41048804190913,37.57317481913436,207.05493248635358,41.08428593024547C206.69937693079802,41.35095259691214,206.92159915302025,41.97317481913436,206.69937693079802,42.684285930245466C205.41048804190913,43.12873037468991,204.92159915302025,42.284285930245474,205.23271026413136,40.63984148580103C205.499376930798,39.26206370802325,205.54382137524246,37.57317481913436,206.65493248635357,38.19539704135658C209.23271026413136,36.55095259691214,209.5882658196869,36.32873037468991,214.43271026413134,37.35095259691214C214.56604359746467,37.57317481913436,215.09937693079803,37.528730374689914,215.41048804190913,37.57317481913436C215.41048804190913,37.57317481913436,215.41048804190913,37.57317481913436,215.41048804190913,37.57317481913436" style="-webkit-tap-highlight-color: rgba(0, 0, 0, 0);"></path><path fill="#ffffff" stroke="#000000" d="M148.39647417941467,216.85240289011145C156.29496347823547,219.9355996354365,152.3407689459617,213.7692061447864,225.47639281254035,216.85240289011145C226.8205144523921,243.0646568418071,224.1322711726886,226.47394147988823,225.47639281254035,250.45544388640485C215.5197144807712,247.3722471410798,187.29904639898007,253.5386406317299,148.39647417941467,250.45544388640485C147.05235253956292,239.26852736727187,149.74059581926642,226.8739047404004,148.39647417941467,216.85240289011145" stroke-width="2" style="-webkit-tap-highlight-color: rgba(0, 0, 0, 0);"></path><rect x="158.39647417941464" y="227.44779993146807" width="57.079918633125686" height="12.41224691358019" rx="0" ry="0" fill="#ffffff" stroke="none" style="-webkit-tap-highlight-color: rgba(0, 0, 0, 0);"></rect><path fill="#000000" stroke="none" d="M158.9660435974647,239.49224437591252C158.6549324863536,239.35891104257917,157.98826581968692,238.6922443759125,158.74382137524248,238.51446659813473C161.7660435974647,237.84779993146807,164.03271026413137,237.09224437591251,165.5882658196869,236.51446659813473C167.8549324863536,235.6700221536903,167.32159915302026,235.0033554870236,165.72159915302026,234.15891104257918C163.6771547085758,233.04779993146806,162.07715470857582,232.82557770924583,160.34382137524247,231.31446659813474C158.8771547085758,230.02557770924585,158.12159915302024,229.75891104257917,159.23271026413136,228.73668882035696C160.8771547085758,227.84779993146807,164.52159915302025,227.44779993146807,167.2771547085758,227.44779993146807C168.5660435974647,227.44779993146807,169.23271026413136,227.71446659813475,169.23271026413136,228.24779993146808C168.83271026413138,229.40335548702362,166.47715470857582,228.51446659813473,164.61048804190915,228.8700221536903C163.8549324863536,228.9589110425792,161.41048804190913,229.13668882035697,160.52159915302025,229.5811332648014C162.1660435974647,231.93668882035695,166.38826581968692,232.15891104257918,168.52159915302025,234.51446659813473C168.8771547085758,234.91446659813474,169.01048804190916,235.40335548702362,169.01048804190916,235.84779993146807C168.83271026413138,236.60335548702363,167.98826581968692,237.40335548702362,167.14382137524248,237.35891104257917C166.21048804190914,238.0700221536903,166.38826581968692,237.40335548702362,164.9660435974647,238.11446659813473C164.34382137524247,238.42557770924586,163.14382137524248,238.51446659813473,162.47715470857582,239.0033554870236C161.3660435974647,238.8700221536903,160.29937693079802,239.44779993146807,158.9660435974647,239.49224437591252C158.9660435974647,239.49224437591252,158.9660435974647,239.49224437591252,158.9660435974647,239.49224437591252M168.9660435974647,237.09224437591251C168.9660435974647,234.51446659813473,171.23271026413138,233.93668882035695,173.8549324863536,233.80335548702362C175.32159915302026,233.75891104257917,175.8549324863536,234.51446659813473,176.47715470857582,235.35891104257917C176.52159915302025,235.9811332648014,176.5660435974647,237.09224437591251,176.1660435974647,237.22557770924584C175.09937693079803,237.13668882035697,172.92159915302025,237.80335548702362,171.76604359746472,237.71446659813475C171.6771547085758,237.80335548702362,171.6771547085758,237.84779993146807,171.6771547085758,237.84779993146807C171.6771547085758,237.9811332648014,172.21048804190914,238.20335548702363,173.32159915302026,238.51446659813473C174.2549324863536,238.51446659813473,176.38826581968692,238.91446659813474,174.69937693079805,239.49224437591252C174.29937693079805,240.11446659813473,173.18826581968693,239.75891104257917,172.21048804190914,239.75891104257917C171.01048804190916,239.53668882035694,168.9660435974647,238.51446659813473,168.9660435974647,237.09224437591251C168.9660435974647,237.09224437591251,168.9660435974647,237.09224437591251,168.9660435974647,237.09224437591251M174.2549324863536,235.09224437591251C173.2771547085758,235.1811332648014,171.23271026413138,235.31446659813474,171.3660435974647,236.24779993146808C172.43271026413137,236.15891104257918,174.29937693079805,236.47002215369028,174.87715470857583,235.9811332648014C174.6549324863536,235.40335548702362,174.83271026413138,235.40335548702362,174.2549324863536,235.09224437591251C174.2549324863536,235.09224437591251,174.2549324863536,235.09224437591251,174.2549324863536,235.09224437591251M187.63271026413136,234.42557770924586C187.72159915302024,235.40335548702362,187.8549324863536,234.8700221536903,187.01048804190913,235.44779993146807C183.7660435974647,235.13668882035697,179.63271026413136,234.42557770924586,179.2771547085758,237.93668882035695C178.92159915302025,238.20335548702363,179.14382137524248,238.82557770924583,178.92159915302025,239.53668882035694C177.63271026413136,239.9811332648014,177.14382137524248,239.13668882035697,177.45493248635358,237.49224437591252C177.72159915302024,236.11446659813473,177.7660435974647,234.42557770924586,178.8771547085758,235.04779993146806C181.45493248635358,233.40335548702362,181.81048804190914,233.1811332648014,186.65493248635357,234.20335548702363C186.7882658196869,234.42557770924586,187.32159915302026,234.3811332648014,187.63271026413136,234.42557770924586C187.63271026413136,234.42557770924586,187.63271026413136,234.42557770924586,187.63271026413136,234.42557770924586M188.12159915302027,233.9811332648014C188.12159915302027,233.9811332648014,190.43271026413137,237.13668882035697,190.43271026413137,237.13668882035697C192.29937693079805,236.42557770924586,193.5438213752425,234.73668882035696,195.9438213752425,234.24779993146808C196.16604359746472,234.42557770924586,196.29937693079805,234.55891104257918,196.29937693079805,234.73668882035696C195.9438213752425,235.5811332648014,196.12159915302027,235.09224437591251,194.83271026413138,236.15891104257918C194.83271026413138,236.20335548702363,194.78826581968693,236.2922443759125,194.78826581968693,236.3811332648014C192.07715470857582,238.3811332648014,190.6549324863536,239.40335548702362,190.47715470857582,239.40335548702362C188.69937693079805,238.73668882035696,188.2549324863536,236.20335548702363,187.4549324863536,234.9589110425792C187.72159915302026,234.33668882035695,187.89937693079804,233.9811332648014,188.12159915302027,233.9811332648014C188.12159915302027,233.9811332648014,188.12159915302027,233.9811332648014,188.12159915302027,233.9811332648014M196.74382137524248,237.09224437591251C196.74382137524248,234.51446659813473,199.01048804190916,233.93668882035695,201.63271026413136,233.80335548702362C203.09937693079803,233.75891104257917,203.63271026413136,234.51446659813473,204.2549324863536,235.35891104257917C204.29937693079802,235.9811332648014,204.34382137524247,237.09224437591251,203.94382137524246,237.22557770924584C202.8771547085758,237.13668882035697,200.69937693079802,237.80335548702362,199.5438213752425,237.71446659813475C199.45493248635358,237.80335548702362,199.45493248635358,237.84779993146807,199.45493248635358,237.84779993146807C199.45493248635358,237.9811332648014,199.98826581968692,238.20335548702363,201.09937693079803,238.51446659813473C202.03271026413137,238.51446659813473,204.1660435974647,238.91446659813474,202.47715470857582,239.49224437591252C202.07715470857582,240.11446659813473,200.9660435974647,239.75891104257917,199.98826581968692,239.75891104257917C198.78826581968693,239.53668882035694,196.74382137524248,238.51446659813473,196.74382137524248,237.09224437591251C196.74382137524248,237.09224437591251,196.74382137524248,237.09224437591251,196.74382137524248,237.09224437591251M202.03271026413137,235.09224437591251C201.05493248635358,235.1811332648014,199.01048804190916,235.31446659813474,199.14382137524248,236.24779993146808C200.21048804190914,236.15891104257918,202.07715470857582,236.47002215369028,202.6549324863536,235.9811332648014C202.43271026413137,235.40335548702362,202.61048804190915,235.40335548702362,202.03271026413137,235.09224437591251C202.03271026413137,235.09224437591251,202.03271026413137,235.09224437591251,202.03271026413137,235.09224437591251M215.41048804190913,234.42557770924586C215.499376930798,235.40335548702362,215.63271026413136,234.8700221536903,214.7882658196869,235.44779993146807C211.54382137524246,235.13668882035697,207.41048804190913,234.42557770924586,207.05493248635358,237.93668882035695C206.69937693079802,238.20335548702363,206.92159915302025,238.82557770924583,206.69937693079802,239.53668882035694C205.41048804190913,239.9811332648014,204.92159915302025,239.13668882035697,205.23271026413136,237.49224437591252C205.499376930798,236.11446659813473,205.54382137524246,234.42557770924586,206.65493248635357,235.04779993146806C209.23271026413136,233.40335548702362,209.5882658196869,233.1811332648014,214.43271026413134,234.20335548702363C214.56604359746467,234.42557770924586,215.09937693079803,234.3811332648014,215.41048804190913,234.42557770924586C215.41048804190913,234.42557770924586,215.41048804190913,234.42557770924586,215.41048804190913,234.42557770924586" style="-webkit-tap-highlight-color: rgba(0, 0, 0, 0);"></path><path fill="none" stroke="#000000" d="M186.9364334959775,53.60304099629341C193.4664079717302,188.9994870612181,180.4064590202248,161.7079006842941,186.9364334959775,216.85240289011145" stroke-width="2" style="-webkit-tap-highlight-color: rgba(0, 0, 0, 0);"></path><rect x="90.00108652122825" y="72.03951140295723" width="52.39006201673871" height="13.12705918667234" rx="0" ry="0" fill="#ffffff" stroke="none" style="-webkit-tap-highlight-color: rgba(0, 0, 0, 0);"></rect><path fill="#000000" stroke="none" d="M103.7244818713003,77.63951140295723C106.08003742685585,77.63951140295723,107.90225964907808,80.17284473629056,107.01337076018919,82.52840029184611C105.63559298241142,84.17284473629056,103.85781520463362,84.03951140295723,100.96892631574474,84.83951140295723C100.39114853796696,84.52840029184611,99.14670409352252,85.28395584740167,98.4355929824114,85.15062251406835C95.19114853796697,85.1061780696239,93.01337076018919,84.39506695851279,91.23559298241142,82.52840029184611C89.05781520463364,80.26173362517945,90.16892631574476,78.97284473629055,91.45781520463365,76.75062251406834C93.01337076018919,74.03951140295723,97.59114853796697,72.61728918073501,100.96892631574474,72.03951140295723C101.68003742685585,72.21728918073501,102.83559298241141,71.99506695851278,102.74670409352251,72.97284473629057C102.52448187130031,74.75062251406834,101.01337076018919,73.06173362517944,99.50225964907807,73.90617806962389C96.1244818713003,74.75062251406834,92.30225964907808,76.79506695851278,91.63559298241142,80.21728918073501C92.88003742685586,84.79506695851278,102.16892631574476,83.59506695851279,105.50225964907807,81.5061780696239C105.59114853796697,81.37284473629056,105.63559298241142,81.19506695851278,105.63559298241142,80.92840029184612C105.19114853796697,79.37284473629056,103.99114853796698,79.017289180735,101.76892631574475,78.92840029184612C101.05781520463364,78.35062251406833,99.4133707601892,78.52840029184611,98.30225964907808,78.97284473629055C98.1244818713003,78.83951140295723,98.08003742685585,78.66173362517945,98.08003742685585,78.48395584740167C98.83559298241141,77.19506695851278,101.32448187130029,77.72840029184611,102.88003742685586,77.41728918073501C103.4133707601892,77.59506695851279,103.68003742685585,77.63951140295723,103.7244818713003,77.63951140295723C103.7244818713003,77.63951140295723,103.7244818713003,77.63951140295723,103.7244818713003,77.63951140295723M109.28003742685587,75.37284473629056C108.43559298241144,73.77284473629055,110.79114853796699,73.55062251406834,112.08003742685588,73.77284473629055C114.03559298241143,73.32840029184612,117.99114853796698,73.417289180735,120.70225964907809,73.1061780696239C120.83559298241141,73.19506695851278,122.39114853796698,73.59506695851277,123.01337076018922,73.77284473629055C119.76892631574475,74.61728918073501,115.4133707601892,74.70617806962389,112.08003742685588,75.46173362517945C111.68003742685588,75.95062251406834,111.36892631574477,76.88395584740167,111.19114853796697,78.17284473629056C112.74670409352254,78.66173362517945,117.10225964907809,77.90617806962389,119.32448187130032,78.3061780696239C119.36892631574477,78.57284473629056,119.4133707601892,78.617289180735,119.45781520463365,78.92840029184612C117.4133707601892,79.99506695851278,114.2133707601892,79.63951140295723,110.88003742685586,80.12840029184612C110.2133707601892,80.70617806962389,109.9022596490781,82.43951140295722,109.9022596490781,83.06173362517944C112.56892631574476,83.1061780696239,115.28003742685587,82.17284473629056,118.25781520463366,82.17284473629056C119.23559298241142,82.617289180735,120.61337076018921,81.86173362517945,121.54670409352255,82.39506695851279C122.25781520463366,83.68395584740168,120.52448187130031,83.55062251406834,119.63559298241142,83.817289180735C116.39114853796698,83.99506695851278,113.45781520463365,84.39506695851279,110.03559298241143,85.017289180735C110.03559298241143,85.017289180735,107.72448187130033,84.57284473629056,107.72448187130033,84.57284473629056C107.54670409352255,83.59506695851279,108.74670409352254,81.5061780696239,108.88003742685586,80.21728918073501C108.74670409352254,80.21728918073501,108.43559298241144,79.55062251406834,108.34670409352253,79.15062251406835C109.23559298241142,78.617289180735,109.85781520463365,78.12840029184612,109.9022596490781,76.17284473629056C109.99114853796698,76.12840029184612,110.1244818713003,75.95062251406834,110.1244818713003,75.86173362517945C110.1244818713003,75.68395584740168,109.5022596490781,75.37284473629056,109.28003742685587,75.37284473629056C109.28003742685587,75.37284473629056,109.28003742685587,75.37284473629056,109.28003742685587,75.37284473629056M129.23559298241142,84.97284473629055C127.6355929824114,84.70617806962389,129.28003742685584,82.79506695851278,129.10225964907806,81.46173362517945C129.54670409352252,80.617289180735,129.36892631574474,79.90617806962389,129.76892631574475,78.617289180735C129.76892631574475,78.617289180735,130.9244818713003,74.83951140295723,130.9244818713003,74.83951140295723C128.65781520463364,74.43951140295722,126.48003742685586,75.28395584740167,124.65781520463364,75.46173362517945C123.94670409352253,75.55062251406834,123.32448187130029,74.3061780696239,124.16892631574473,74.03951140295723C125.32448187130029,73.68395584740168,130.52448187130028,73.68395584740168,132.1244818713003,73.19506695851278C132.1244818713003,73.19506695851278,132.65781520463364,73.46173362517945,132.65781520463364,73.46173362517945C135.6355929824114,73.37284473629056,138.96892631574474,73.417289180735,141.54670409352252,73.417289180735C141.90225964907808,73.417289180735,142.16892631574473,73.55062251406834,142.39114853796696,73.86173362517945C141.59114853796697,74.57284473629056,139.10225964907806,73.99506695851278,137.81337076018917,74.48395584740167C135.68003742685585,74.3061780696239,135.14670409352252,74.66173362517945,132.79114853796696,74.79506695851279C130.9244818713003,75.77284473629057,131.19114853796697,80.57284473629056,130.21337076018918,83.1061780696239C130.25781520463363,83.63951140295723,129.81337076018917,85.06173362517944,129.23559298241142,84.97284473629055C129.23559298241142,84.97284473629055,129.23559298241142,84.97284473629055,129.23559298241142,84.97284473629055" style="-webkit-tap-highlight-color: rgba(0, 0, 0, 0);"></path><path fill="none" stroke="#000000" d="M45.45580156321769,86.73010018296574C125.71655348774223,92.29882759512384,81.88103497995597,81.42852485491143,181.94293106016025,86.47149226952055" stroke-width="2" marker-end="url(#raphael-marker-endblock55-obj3190)" stroke-dasharray="0" style="-webkit-tap-highlight-color: rgba(0, 0, 0, 0);"></path><rect x="88.42765850719535" y="104.50649223769412" width="55.536918044804494" height="14.447215890543248" rx="0" ry="0" fill="#ffffff" stroke="none" style="-webkit-tap-highlight-color: rgba(0, 0, 0, 0);"></rect><path fill="#000000" stroke="none" d="M95.27623762537267,109.31245684918012C95.80957095870599,109.31245684918012,96.56512651426155,109.97912351584678,96.34290429203935,110.60134573806901C96.34290429203935,110.77912351584679,91.05401540315044,113.44579018251345,91.009570958706,113.84579018251345C91.67623762537266,114.77912351584679,94.96512651426156,116.6902346269579,95.05401540315044,117.66801240473568C95.14290429203933,118.95690129362457,94.25401540315045,118.20134573806901,93.72068206981712,118.33467907140235C92.52068206981711,117.04579018251346,91.0984598475949,115.93467907140234,89.49845984759489,115.001345738069C88.69845984759489,114.55690129362456,88.38734873648379,114.42356796029124,88.43179318092822,113.17912351584678C88.43179318092822,113.17912351584678,95.27623762537267,109.31245684918012,95.27623762537267,109.31245684918012M100.16512651426157,104.51245684918013C100.65401540315045,104.42356796029122,100.609570958706,105.35690129362456,100.65401540315045,105.40134573806901C100.16512651426157,107.71245684918011,98.87623762537268,111.31245684918012,98.2984598475949,113.801345738069C98.03179318092822,115.13467907140235,97.89845984759489,115.44579018251345,97.89845984759489,115.89023462695789C99.09845984759488,115.89023462695789,102.9206820698171,114.37912351584679,104.25401540315045,114.37912351584679C106.12068206981712,114.37912351584679,105.63179318092824,116.46801240473567,105.9873487364838,117.89023462695789C105.9873487364838,118.06801240473567,105.76512651426157,118.64579018251345,105.27623762537266,118.60134573806901C105.45401540315044,118.6902346269579,105.76512651426157,118.73467907140234,105.45401540315044,118.86801240473568C104.38734873648377,118.82356796029123,104.209570958706,117.35690129362456,104.34290429203935,116.02356796029123C104.2984598475949,115.97912351584678,104.25401540315045,115.89023462695789,104.12068206981712,115.801345738069C101.85401540315044,115.801345738069,99.23179318092824,117.4902346269579,96.9206820698171,118.06801240473567C96.52068206981713,118.11245684918012,96.25401540315045,117.40134573806901,96.209570958706,117.04579018251346C96.96512651426156,113.0902346269579,97.94290429203934,110.77912351584679,99.36512651426156,105.31245684918012C99.36512651426156,104.91245684918012,99.63179318092824,104.46801240473567,100.16512651426157,104.51245684918013C100.16512651426157,104.51245684918013,100.16512651426157,104.51245684918013,100.16512651426157,104.51245684918013M110.65401540315042,111.62356796029123C111.09845984759488,109.801345738069,112.209570958706,106.02356796029123,113.54290429203931,105.66801240473568C113.72068206981709,105.71245684918011,114.60957095870597,106.51245684918013,114.03179318092822,107.26801240473567C113.27623762537266,108.24579018251345,112.74290429203933,109.801345738069,112.4317931809282,111.89023462695789C113.58734873648376,112.24579018251345,114.65401540315042,111.57912351584679,115.67623762537266,112.11245684918012C116.29845984759487,112.11245684918012,116.65401540315042,112.24579018251345,116.65401540315042,112.51245684918013C116.609570958706,113.35690129362456,114.69845984759488,113.31245684918012,114.1206820698171,113.53467907140234C113.67623762537266,113.57912351584679,112.07623762537264,113.53467907140234,111.72068206981709,113.97912351584678C111.27623762537266,115.04579018251346,111.54290429203931,116.95690129362457,110.8317931809282,118.33467907140235C109.89845984759486,118.20134573806901,109.67623762537266,118.37912351584679,109.67623762537266,117.44579018251345C109.67623762537266,117.04579018251346,109.76512651426154,115.84579018251345,110.03179318092822,113.84579018251345C109.36512651426153,113.26801240473567,106.4317931809282,114.24579018251345,106.60957095870597,112.64579018251345C106.78734873648375,110.95690129362457,109.76512651426154,112.91245684918012,110.65401540315042,111.62356796029123C110.65401540315042,111.62356796029123,110.65401540315042,111.62356796029123,110.65401540315042,111.62356796029123M130.96512651426158,115.66801240473568C130.87623762537268,116.60134573806901,130.96512651426158,118.20134573806901,131.0984598475949,118.91245684918012C130.34290429203935,119.04579018251346,129.7651265142616,118.86801240473568,129.6762376253727,118.20134573806901C129.32068206981714,117.89023462695789,129.45401540315046,116.24579018251345,129.0984598475949,115.0902346269579C127.54290429203937,115.22356796029123,125.45401540315046,117.26801240473567,124.16512651426157,118.20134573806901C123.63179318092824,118.55690129362456,122.3873487364838,118.37912351584679,122.43179318092825,117.53467907140234C122.43179318092825,117.53467907140234,122.52068206981713,115.04579018251346,122.52068206981713,115.04579018251346C122.4762376253727,114.46801240473567,122.6984598475949,113.801345738069,122.16512651426157,113.75690129362457C120.60957095870603,114.11245684918012,118.65401540315048,116.95690129362457,117.05401540315046,117.62356796029123C116.7873487364838,117.71245684918011,116.16512651426157,116.82356796029123,116.12068206981715,116.64579018251345C116.16512651426157,115.75690129362457,116.74290429203936,111.97912351584678,117.85401540315047,113.801345738069C117.85401540315047,113.801345738069,118.20957095870602,114.46801240473567,118.20957095870602,114.46801240473567C118.96512651426158,113.84579018251345,121.40957095870601,111.97912351584678,122.34290429203935,112.06801240473567C123.54290429203937,112.20134573806901,124.52068206981713,113.84579018251345,124.25401540315048,115.62356796029123C125.32068206981714,115.53467907140234,127.18734873648381,113.17912351584678,129.7651265142616,113.26801240473567C130.25401540315048,113.89023462695789,131.00957095870604,114.2902346269579,130.96512651426158,115.66801240473568C130.96512651426158,115.66801240473568,130.96512651426158,115.66801240473568,130.96512651426158,115.66801240473568M134.78734873648378,104.95690129362457C135.72068206981712,104.6902346269579,136.43179318092822,105.97912351584678,136.12068206981712,107.40134573806901C135.67623762537266,109.66801240473568,134.87623762537265,113.40134573806901,134.87623762537265,116.64579018251345C134.87623762537265,117.13467907140235,135.14290429203933,118.24579018251345,134.2984598475949,118.2902346269579C133.009570958706,118.06801240473567,132.96512651426156,116.15690129362456,133.18734873648378,114.60134573806901C133.18734873648378,114.60134573806901,134.43179318092822,106.73467907140234,134.43179318092822,106.73467907140234C134.16512651426154,105.97912351584678,134.47623762537268,105.44579018251345,134.78734873648378,104.95690129362457C134.78734873648378,104.95690129362457,134.78734873648378,104.95690129362457,134.78734873648378,104.95690129362457M136.56512651426155,117.66801240473568C137.45401540315044,115.53467907140234,139.98734873648377,115.04579018251346,141.809570958706,113.4902346269579C141.09845984759488,112.64579018251345,139.2317931809282,111.17912351584678,138.209570958706,110.15690129362457C137.72068206981712,109.84579018251345,137.54290429203934,108.46801240473567,138.16512651426154,108.37912351584679C139.6317931809282,109.0902346269579,141.85401540315044,111.53467907140234,143.54290429203934,113.04579018251346C144.69845984759488,114.06801240473567,143.27623762537266,114.60134573806901,141.72068206981712,115.40134573806901C140.43179318092822,116.11245684918012,139.2317931809282,116.64579018251345,138.47623762537268,117.801345738069C137.54290429203934,118.46801240473567,137.76512651426154,118.6902346269579,136.96512651426156,118.46801240473567C136.83179318092823,118.46801240473567,136.56512651426155,117.75690129362457,136.56512651426155,117.66801240473568C136.56512651426155,117.66801240473568,136.56512651426155,117.66801240473568,136.56512651426155,117.66801240473568" style="-webkit-tap-highlight-color: rgba(0, 0, 0, 0);"></path><path fill="none" stroke="#000000" d="M186.9364334959775,121.17731607350902C71.8748845095553,126.72013760823802,126.79316348220073,115.97652289398087,50.44254821831581,120.84935797657263" stroke-width="2" marker-end="url(#raphael-marker-endblock55-obj3193)" stroke-dasharray="6,2" style="-webkit-tap-highlight-color: rgba(0, 0, 0, 0);"></path><rect x="55.45580156321772" y="135.19409791747816" width="121.4806319327598" height="21.966436312061745" rx="0" ry="0" fill="#ffffff" stroke="none" style="-webkit-tap-highlight-color: rgba(0, 0, 0, 0);"></rect><path fill="#000000" stroke="none" d="M58.255801563217716,138.9397649408153C57.9446904521066,138.40643160748198,56.65580156321771,139.65087605192642,56.07802378543994,139.78420938525974C55.90024600766216,139.78420938525974,55.67802378543993,139.56198716303754,55.45580156321772,139.02865382970418C56.38913489655104,136.9397649408153,60.52246822988438,136.58420938525975,63.10024600766215,136.40643160748198C64.92246822988437,136.27309827414865,68.96691267432882,137.87309827414865,67.50024600766216,140.27309827414865C66.56691267432882,141.78420938525974,64.30024600766217,142.89532049637086,61.10024600766215,143.8286538297042C61.011357118773276,144.5397649408153,57.589134896551045,143.96198716303752,57.81135711877327,145.87309827414865C57.9446904521066,146.98420938525976,57.589134896551045,147.96198716303752,57.36691267432883,148.89532049637086C56.38913489655104,148.8508760519264,56.344690452106605,147.60643160748197,56.38913489655104,146.40643160748198C56.47802378543993,145.29532049637086,55.500246007662156,144.98420938525976,56.03357934099549,144.18420938525975C56.966912674328825,143.96198716303752,56.47802378543993,142.6286538297042,57.1446904521066,141.65087605192642C57.41135711877327,140.40643160748198,57.76691267432882,139.5175427185931,58.255801563217716,138.9397649408153C58.255801563217716,138.9397649408153,58.255801563217716,138.9397649408153,58.255801563217716,138.9397649408153M58.30024600766215,138.76198716303753C60.38913489655104,139.38420938525977,58.211357118773265,140.98420938525976,58.255801563217716,143.16198716303754C60.07802378543994,143.02865382970418,63.27802378543993,141.5175427185931,65.94469045210661,139.78420938525974C66.16691267432881,139.38420938525977,66.30024600766217,139.16198716303754,66.30024600766217,139.11754271859309C65.0558015632177,137.02865382970418,60.744690452106596,137.8286538297042,58.30024600766215,138.76198716303753C58.30024600766215,138.76198716303753,58.30024600766215,138.76198716303753,58.30024600766215,138.76198716303753M77.01135711877325,137.02865382970418C80.78913489655105,137.07309827414863,84.25580156321769,138.31754271859307,83.67802378543993,142.58420938525975C84.25580156321769,142.89532049637086,83.1446904521066,143.38420938525977,83.4558015632177,143.73976494081532C82.4335793409955,146.5397649408153,77.54469045210658,148.71754271859308,73.32246822988438,149.2508760519264C69.76691267432881,148.5397649408153,65.72246822988436,146.76198716303753,66.7446904521066,142.45087605192643C67.23357934099548,140.36198716303753,67.63357934099548,140.5397649408153,69.10024600766215,138.76198716303753C69.85580156321771,138.36198716303753,70.83357934099547,137.78420938525974,72.34469045210659,137.47309827414864C74.34469045210659,137.02865382970418,75.94469045210658,137.02865382970418,77.01135711877325,137.02865382970418C77.01135711877325,137.02865382970418,77.01135711877325,137.02865382970418,77.01135711877325,137.02865382970418M82.47802378543992,142.00643160748197C83.18913489655102,139.73976494081532,79.72246822988436,138.2286538297042,77.54469045210658,138.49532049637085C76.4335793409955,138.00643160748197,75.32246822988438,138.85087605192643,73.94469045210658,138.49532049637085C73.27802378543993,138.9397649408153,70.83357934099547,139.206431607482,70.16691267432881,139.87309827414865C70.4335793409955,140.76198716303753,68.96691267432882,140.9397649408153,68.4335793409955,141.87309827414865C66.56691267432882,145.206431607482,70.21135711877326,147.56198716303754,73.54469045210658,147.56198716303754C76.03357934099549,147.56198716303754,82.83357934099547,144.40643160748198,82.47802378543992,142.00643160748197C82.47802378543992,142.00643160748197,82.47802378543992,142.00643160748197,82.47802378543992,142.00643160748197M83.94469045210661,148.80643160748198C83.63357934099551,148.67309827414863,82.96691267432882,148.00643160748197,83.72246822988438,147.8286538297042C86.7446904521066,147.16198716303754,89.01135711877328,146.40643160748198,90.56691267432882,145.8286538297042C92.8335793409955,144.98420938525976,92.30024600766217,144.31754271859307,90.70024600766217,143.47309827414864C88.65580156321772,142.36198716303753,87.05580156321773,142.1397649408153,85.32246822988438,140.6286538297042C83.85580156321771,139.33976494081531,83.10024600766215,139.07309827414863,84.21135711877326,138.05087605192642C85.85580156321771,137.16198716303754,89.50024600766216,136.76198716303753,92.25580156321772,136.76198716303753C93.54469045210661,136.76198716303753,94.21135711877326,137.02865382970418,94.21135711877326,137.56198716303754C93.81135711877329,138.71754271859308,91.45580156321773,137.8286538297042,89.58913489655106,138.18420938525975C88.8335793409955,138.27309827414865,86.38913489655104,138.45087605192643,85.50024600766216,138.89532049637086C87.1446904521066,141.2508760519264,91.36691267432883,141.47309827414864,93.50024600766216,143.8286538297042C93.85580156321771,144.2286538297042,93.98913489655106,144.71754271859308,93.98913489655106,145.16198716303754C93.81135711877329,145.9175427185931,92.96691267432882,146.71754271859308,92.12246822988439,146.67309827414863C91.18913489655105,147.38420938525977,91.36691267432883,146.71754271859308,89.94469045210661,147.4286538297042C89.32246822988438,147.73976494081532,88.12246822988439,147.8286538297042,87.45580156321773,148.31754271859307C86.34469045210662,148.18420938525975,85.27802378543993,148.76198716303753,83.94469045210661,148.80643160748198C83.94469045210661,148.80643160748198,83.94469045210661,148.80643160748198,83.94469045210661,148.80643160748198M100.03357934099552,148.80643160748198C98.4335793409955,148.5397649408153,100.07802378543994,146.6286538297042,99.90024600766216,145.29532049637086C100.34469045210662,144.45087605192643,100.16691267432884,143.73976494081532,100.56691267432885,142.45087605192643C100.56691267432885,142.45087605192643,101.72246822988438,138.67309827414863,101.72246822988438,138.67309827414863C99.45580156321773,138.27309827414865,97.27802378543996,139.11754271859309,95.45580156321773,139.29532049637086C94.74469045210662,139.38420938525977,94.12246822988439,138.1397649408153,94.96691267432882,137.87309827414865C96.12246822988439,137.5175427185931,101.32246822988438,137.5175427185931,102.9224682298844,137.02865382970418C102.9224682298844,137.02865382970418,103.45580156321773,137.29532049637086,103.45580156321773,137.29532049637086C106.4335793409955,137.206431607482,109.76691267432884,137.2508760519264,112.34469045210662,137.2508760519264C112.70024600766217,137.2508760519264,112.96691267432882,137.38420938525977,113.18913489655105,137.69532049637087C112.38913489655107,138.40643160748198,109.90024600766216,137.8286538297042,108.61135711877327,138.31754271859307C106.47802378543994,138.1397649408153,105.94469045210661,138.49532049637085,103.58913489655106,138.6286538297042C101.72246822988438,139.60643160748197,101.98913489655106,144.40643160748198,101.01135711877328,146.9397649408153C101.05580156321773,147.47309827414864,100.61135711877327,148.89532049637086,100.03357934099552,148.80643160748198C100.03357934099552,148.80643160748198,100.03357934099552,148.80643160748198,100.03357934099552,148.80643160748198M118.21135711877326,135.47309827414864C119.41135711877325,135.07309827414863,122.21135711877326,134.8508760519264,121.72246822988438,136.6286538297042C120.8335793409955,137.38420938525977,119.27802378543993,136.40643160748198,117.85580156321771,137.206431607482C117.67802378543993,137.2508760519264,117.58913489655103,137.38420938525977,117.58913489655103,137.56198716303754C119.0558015632177,139.4286538297042,118.96691267432882,139.5175427185931,117.90024600766216,141.33976494081531C117.63357934099548,141.78420938525974,117.32246822988438,142.05087605192642,117.32246822988438,141.9175427185931C117.54469045210661,142.18420938525975,118.07802378543994,142.67309827414863,117.98913489655104,143.29532049637086C117.98913489655104,143.29532049637086,116.52246822988437,146.76198716303753,116.52246822988437,146.76198716303753C116.8335793409955,148.31754271859307,117.76691267432881,148.9397649408153,119.0558015632177,149.56198716303754C119.0558015632177,149.56198716303754,121.23357934099548,149.56198716303754,121.23357934099548,149.56198716303754C121.54469045210661,151.4286538297042,118.96691267432882,151.38420938525977,117.41135711877325,150.45087605192643C115.50024600766216,149.87309827414865,115.1446904521066,148.18420938525975,114.92246822988437,146.49532049637085C114.8335793409955,145.38420938525977,116.03357934099549,144.09532049637087,116.12246822988439,143.33976494081531C115.98913489655104,143.16198716303754,114.07802378543994,143.11754271859309,114.30024600766217,142.40643160748198C114.38913489655104,141.96198716303752,114.16691267432881,141.11754271859309,114.78913489655105,141.29532049637086C114.87802378543992,141.29532049637086,117.0558015632177,140.5397649408153,117.10024600766215,139.60643160748197C117.27802378543993,139.47309827414864,115.98913489655104,138.58420938525975,115.98913489655104,137.4286538297042C115.98913489655104,135.60643160748197,116.34469045210659,136.09532049637087,118.21135711877326,135.47309827414864C118.21135711877326,135.47309827414864,118.21135711877326,135.47309827414864,118.21135711877326,135.47309827414864M133.8558015632177,140.45087605192643C134.0780237854399,141.69532049637087,133.0558015632177,142.2286538297042,132.61135711877324,141.38420938525977C132.61135711877324,140.49532049637085,133.14469045210657,140.09532049637087,133.8558015632177,140.45087605192643C133.8558015632177,140.45087605192643,133.8558015632177,140.45087605192643,133.8558015632177,140.45087605192643M133.58913489655103,144.5397649408153C134.83357934099547,144.49532049637085,134.30024600766214,146.09532049637087,134.30024600766214,147.2508760519264C134.30024600766214,149.9175427185931,133.4558015632177,153.9175427185931,132.7446904521066,156.2286538297042C132.21135711877326,156.58420938525975,131.90024600766213,157.60643160748197,131.18913489655102,156.9397649408153C129.7669126743288,156.6286538297042,129.27802378543993,156.09532049637087,128.70024600766214,154.98420938525976C128.70024600766214,154.98420938525976,128.78913489655102,154.2286538297042,128.78913489655102,154.2286538297042C129.27802378543993,154.40643160748198,130.9669126743288,156.2286538297042,131.50024600766213,155.0286538297042C131.94469045210658,152.58420938525975,132.70024600766214,150.27309827414865,132.83357934099547,147.4286538297042C132.83357934099547,146.71754271859308,132.83357934099547,144.80643160748198,133.58913489655103,144.5397649408153C133.58913489655103,144.5397649408153,133.58913489655103,144.5397649408153,133.58913489655103,144.5397649408153M142.12246822988436,142.2286538297042C142.96691267432882,142.27309827414865,143.32246822988438,143.29532049637086,142.70024600766214,143.65087605192642C142.52246822988437,143.69532049637087,141.72246822988438,143.8286538297042,140.3446904521066,143.96198716303752C139.63357934099548,144.31754271859307,139.36691267432883,143.87309827414865,138.61135711877327,144.36198716303753C139.63357934099548,145.29532049637086,142.56691267432882,145.07309827414863,142.87802378543992,147.11754271859309C142.30024600766214,148.18420938525975,139.10024600766215,148.67309827414863,137.36691267432883,148.98420938525976C136.96691267432882,148.8508760519264,136.56691267432882,148.8508760519264,136.1669126743288,148.98420938525976C135.90024600766216,148.80643160748198,135.23357934099548,148.27309827414865,135.81135711877326,147.87309827414865C137.1446904521066,147.60643160748197,139.50024600766216,147.29532049637086,140.3446904521066,146.80643160748198C139.58913489655103,146.09532049637087,136.78913489655105,145.33976494081531,136.0335793409955,144.67309827414863C135.90024600766216,144.58420938525975,135.8558015632177,144.36198716303753,135.8558015632177,144.00643160748197C135.58913489655103,143.73976494081532,135.98913489655104,143.4286538297042,136.52246822988437,143.206431607482C137.50024600766216,142.80643160748198,140.70024600766214,142.18420938525975,142.12246822988436,142.2286538297042C142.12246822988436,142.2286538297042,142.12246822988436,142.2286538297042,142.12246822988436,142.2286538297042M148.4335793409955,142.76198716303753C150.7446904521066,141.69532049637087,153.0558015632177,143.56198716303754,153.0558015632177,145.56198716303754C153.0558015632177,148.18420938525975,150.12246822988436,148.5397649408153,147.98913489655104,149.2508760519264C145.67802378543993,149.16198716303754,142.87802378543992,147.0286538297042,144.4335793409955,144.58420938525975C145.4558015632177,143.78420938525974,146.7446904521066,143.02865382970418,148.4335793409955,142.76198716303753C148.4335793409955,142.76198716303753,148.4335793409955,142.76198716303753,148.4335793409955,142.76198716303753M145.63357934099548,146.27309827414865C146.3446904521066,148.67309827414863,151.18913489655102,146.98420938525976,151.4558015632177,145.2508760519264C150.92246822988437,142.6286538297042,145.72246822988438,144.89532049637086,145.63357934099548,146.27309827414865C145.63357934099548,146.27309827414865,145.63357934099548,146.27309827414865,145.63357934099548,146.27309827414865M158.6558015632177,142.89532049637086C160.30024600766214,143.16198716303754,161.41135711877325,145.29532049637086,161.41135711877325,147.8286538297042C161.41135711877325,149.2508760519264,160.70024600766214,148.9397649408153,160.0335793409955,148.58420938525975C159.23357934099548,147.2508760519264,159.81135711877326,146.58420938525975,159.0558015632177,144.80643160748198C157.41135711877325,144.2286538297042,155.90024600766216,147.2508760519264,154.96691267432882,147.69532049637087C154.07802378543994,147.56198716303754,153.23357934099548,145.96198716303752,154.0335793409955,144.9397649408153C154.12246822988436,144.40643160748198,154.1669126743288,144.27309827414865,154.52246822988437,143.60643160748197C155.0558015632177,143.2508760519264,155.41135711877325,144.09532049637087,155.81135711877326,144.1397649408153C155.81135711877326,144.1397649408153,158.6558015632177,142.89532049637086,158.6558015632177,142.89532049637086M171.9446904521066,135.69532049637087C173.4558015632177,134.9397649408153,177.18913489655105,134.89532049637086,176.92246822988437,137.29532049637086C177.18913489655105,138.40643160748198,173.5446904521066,141.65087605192642,173.8558015632177,141.87309827414865C174.0335793409955,142.58420938525975,175.58913489655103,142.18420938525975,175.81135711877326,143.11754271859309C176.1224682298844,144.6286538297042,174.30024600766217,143.87309827414865,174.1669126743288,144.8508760519264C174.52246822988437,146.1397649408153,176.3446904521066,148.5397649408153,175.18913489655105,150.31754271859307C174.52246822988437,151.33976494081531,173.27802378543993,151.47309827414864,171.9446904521066,152.36198716303753C170.4335793409955,152.71754271859308,170.0335793409955,152.85087605192643,169.7669126743288,151.60643160748197C169.81135711877326,150.9397649408153,171.10024600766215,150.9397649408153,171.23357934099548,150.71754271859308C172.30024600766217,150.18420938525975,174.3446904521066,149.5175427185931,173.67802378543993,148.00643160748197C173.0558015632177,146.5397649408153,172.0335793409955,144.98420938525976,172.8335793409955,143.4286538297042C170.78913489655105,141.206431607482,174.87802378543992,138.98420938525976,175.50024600766216,137.16198716303754C175.0558015632177,136.45087605192643,172.47802378543994,137.4286538297042,172.07802378543994,136.6286538297042C172.07802378543994,136.6286538297042,171.9446904521066,135.69532049637087,171.9446904521066,135.69532049637087" style="-webkit-tap-highlight-color: rgba(0, 0, 0, 0);"></path><path fill="none" stroke="#000000" d="M45.45580156321769,163.14375238557074C118.6368177328202,157.55723627091135,56.46929107003689,168.51494349251485,181.94126925015343,163.35354444478457" stroke-width="2" marker-end="url(#raphael-marker-endblock55-obj3196)" stroke-dasharray="0" style="-webkit-tap-highlight-color: rgba(0, 0, 0, 0);"></path><rect x="60.83457838070633" y="181.2894271333004" width="110.72307829778252" height="13.708650504540714" rx="0" ry="0" fill="#ffffff" stroke="none" style="-webkit-tap-highlight-color: rgba(0, 0, 0, 0);"></rect><path fill="#000000" stroke="none" d="M64.37046952583341,192.95363319339668C66.4593584147223,192.50918874895223,69.65935841472229,191.88696652672996,71.83713619250007,192.55363319339665C71.83713619250007,193.08696652673,70.81491397027786,193.13141097117443,70.28158063694453,193.26474430450776C70.32602508138898,193.30918874895224,70.41491397027785,193.30918874895224,70.50380285916675,193.30918874895224C67.21491397027786,193.6647443045078,65.2593584147223,194.33141097117442,61.88158063694452,194.33141097117442C61.2593584147223,194.33141097117442,60.992691748055634,193.75363319339664,60.9482473036112,193.08696652673C63.39269174805564,191.30918874895224,64.63713619250008,190.3758554156189,66.41491397027785,188.46474430450775C67.57046952583342,187.88696652672996,69.30380285916674,185.48696652673,69.57046952583342,183.93141097117444C69.52602508138897,183.5314109711744,69.08158063694454,183.22029986006334,68.59269174805563,183.22029986006334C67.70380285916674,183.17585541561886,63.2593584147223,184.50918874895223,61.659358414722305,185.39807763784108C61.21491397027786,185.30918874895224,60.32602508138896,184.50918874895223,61.21491397027786,184.15363319339667C63.43713619250008,183.22029986006334,66.14824730361119,181.88696652672996,69.12602508138896,182.02029986006335C70.23713619250007,182.46474430450775,71.08158063694454,182.9980776378411,70.72602508138898,183.75363319339664C71.25935841472231,185.08696652673,69.88158063694452,186.59807763784107,69.21491397027786,187.44252208228556C67.48158063694453,189.5758554156189,67.57046952583342,189.17585541561886,64.10380285916675,192.28696652673C64.10380285916675,192.50918874895223,63.97046952583341,192.64252208228555,63.748247303611194,192.77585541561888C63.92602508138897,192.9091887489522,64.10380285916675,192.95363319339668,64.37046952583341,192.95363319339668C64.37046952583341,192.95363319339668,64.37046952583341,192.95363319339668,64.37046952583341,192.95363319339668M75.70380285916674,183.97585541561887C78.81491397027786,181.88696652672996,87.65935841472229,182.15363319339667,87.70380285916674,186.59807763784107C87.70380285916674,188.1091887489522,87.21491397027786,188.95363319339668,86.41491397027785,189.97585541561887C85.83713619250007,191.5314109711744,85.08158063694451,191.39807763784108,82.63713619250008,192.8202998600633C82.3704695258334,192.9091887489522,82.19269174805562,193.08696652673,82.32602508138898,193.17585541561886C79.08158063694451,193.79807763784112,77.9704695258334,194.86474430450778,74.63713619250008,193.22029986006334C74.32602508138898,192.64252208228555,72.32602508138898,191.08696652673,72.59269174805563,189.30918874895224C72.99269174805563,186.77585541561888,73.79269174805562,185.97585541561887,75.70380285916674,183.97585541561887C75.70380285916674,183.97585541561887,75.70380285916674,183.97585541561887,75.70380285916674,183.97585541561887M77.70380285916674,192.8202998600633C82.14824730361117,192.8202998600633,86.68158063694453,190.77585541561888,86.3704695258334,186.02029986006335C84.94824730361118,183.5758554156189,79.9704695258334,182.77585541561888,76.99269174805563,184.46474430450775C76.28158063694453,185.97585541561887,73.9704695258334,186.86474430450778,74.63713619250008,189.26474430450776C74.90380285916673,190.3758554156189,74.68158063694453,190.24252208228552,74.50380285916675,190.9980776378411C74.7704695258334,192.06474430450777,76.32602508138898,192.8202998600633,77.70380285916674,192.8202998600633C77.70380285916674,192.8202998600633,77.70380285916674,192.8202998600633,77.70380285916674,192.8202998600633M89.65935841472229,185.26474430450776C89.65935841472229,184.64252208228555,89.92602508138897,182.64252208228555,90.94824730361118,183.5314109711744C91.08158063694454,183.70918874895222,91.21491397027786,184.1091887489522,91.39269174805564,184.59807763784107C91.39269174805564,184.59807763784107,90.41491397027785,190.28696652673,90.41491397027785,190.28696652673C90.41491397027785,190.28696652673,90.7704695258334,194.15363319339667,90.7704695258334,194.15363319339667C90.59269174805563,194.42029986006332,90.37046952583343,194.28696652673,90.0593584147223,194.24252208228552C88.10380285916675,192.55363319339665,89.65935841472229,188.15363319339667,89.65935841472229,185.26474430450776C89.65935841472229,185.26474430450776,89.65935841472229,185.26474430450776,89.65935841472229,185.26474430450776M102.28158063694453,189.44252208228556C101.74824730361117,192.77585541561888,106.54824730361118,192.8202998600633,109.65935841472229,192.59807763784113C109.65935841472229,192.59807763784113,116.10380285916675,192.15363319339667,116.10380285916675,192.15363319339667C116.50380285916673,192.24252208228552,116.50380285916673,192.3758554156189,116.50380285916673,192.95363319339668C114.85935841472228,193.75363319339664,112.72602508138895,194.1980776378411,111.65935841472229,193.93141097117444C110.85935841472228,194.3758554156189,109.57046952583339,194.3758554156189,108.50380285916673,194.3758554156189C107.21491397027783,194.3758554156189,105.48158063694451,194.42029986006332,103.83713619250007,193.88696652672996C103.57046952583339,193.84252208228554,103.39269174805561,193.75363319339664,103.39269174805561,193.5314109711744C101.92602508138894,192.95363319339668,101.25935841472229,192.06474430450777,100.4593584147223,190.9091887489522C99.61491397027784,185.84252208228554,106.94824730361118,184.24252208228552,110.41491397027785,183.04252208228553C111.9704695258334,183.04252208228553,114.32602508138895,181.6647443045078,114.81491397027786,183.35363319339666C114.7704695258334,184.64252208228555,112.63713619250008,183.97585541561887,111.43713619250006,184.59807763784107C108.99269174805563,184.95363319339668,106.32602508138895,186.15363319339667,103.65935841472229,187.75363319339664C103.08158063694451,188.1091887489522,102.63713619250008,188.68696652672998,102.28158063694453,189.44252208228556C102.28158063694453,189.44252208228556,102.28158063694453,189.44252208228556,102.28158063694453,189.44252208228556M127.48158063694451,189.30918874895224C127.57046952583339,190.28696652673,127.70380285916674,189.75363319339664,126.85935841472228,190.33141097117442C123.61491397027784,190.02029986006335,119.48158063694451,189.30918874895224,119.12602508138896,192.8202998600633C118.7704695258334,193.08696652673,118.99269174805563,193.70918874895222,118.7704695258334,194.42029986006332C117.48158063694451,194.86474430450778,116.99269174805563,194.02029986006335,117.30380285916674,192.3758554156189C117.57046952583339,190.9980776378411,117.61491397027784,189.30918874895224,118.72602508138895,189.93141097117444C121.30380285916674,188.28696652673,121.65935841472229,188.06474430450777,126.50380285916673,189.08696652673C126.63713619250005,189.30918874895224,127.17046952583341,189.26474430450776,127.48158063694451,189.30918874895224C127.48158063694451,189.30918874895224,127.48158063694451,189.30918874895224,127.48158063694451,189.30918874895224M127.08158063694454,191.97585541561887C127.08158063694454,189.39807763784108,129.34824730361123,188.8202998600633,131.97046952583344,188.68696652672998C133.43713619250008,188.64252208228555,133.97046952583344,189.39807763784108,134.59269174805564,190.24252208228552C134.63713619250007,190.86474430450778,134.68158063694455,191.97585541561887,134.2815806369445,192.1091887489522C133.21491397027785,192.02029986006335,131.0371361925001,192.68696652672998,129.88158063694453,192.59807763784113C129.79269174805563,192.68696652672998,129.79269174805563,192.73141097117445,129.79269174805563,192.73141097117445C129.79269174805563,192.86474430450778,130.326025081389,193.08696652673,131.43713619250008,193.39807763784108C132.3704695258334,193.39807763784108,134.50380285916674,193.79807763784112,132.81491397027787,194.3758554156189C132.4149139702779,194.9980776378411,131.30380285916675,194.64252208228555,130.326025081389,194.64252208228555C129.126025081389,194.42029986006332,127.08158063694454,193.39807763784108,127.08158063694454,191.97585541561887C127.08158063694454,191.97585541561887,127.08158063694454,191.97585541561887,127.08158063694454,191.97585541561887M132.3704695258334,189.97585541561887C131.39269174805565,190.06474430450777,129.34824730361123,190.1980776378411,129.48158063694456,191.13141097117443C130.54824730361122,191.04252208228553,132.4149139702779,191.35363319339666,132.99269174805568,190.86474430450778C132.77046952583345,190.28696652673,132.9482473036112,190.28696652673,132.3704695258334,189.97585541561887C132.3704695258334,189.97585541561887,132.3704695258334,189.97585541561887,132.3704695258334,189.97585541561887M140.50380285916674,192.02029986006335C140.9482473036112,192.1980776378411,143.12602508138895,193.84252208228554,143.39269174805565,194.24252208228552C143.43713619250008,194.55363319339665,143.12602508138895,194.9980776378411,142.8593584147223,194.9980776378411C142.8593584147223,194.9980776378411,140.1926917480556,193.6647443045078,140.1926917480556,193.6647443045078C139.21491397027785,193.75363319339664,138.326025081389,194.59807763784113,137.30380285916675,194.50918874895223C135.83713619250005,194.68696652672998,134.2815806369445,191.5314109711744,136.63713619250007,190.9091887489522C138.45935841472232,189.70918874895222,140.90380285916677,189.17585541561886,141.52602508138898,191.30918874895224C141.52602508138898,191.5758554156189,141.34824730361117,191.84252208228554,141.0371361925001,192.02029986006335C139.5704695258334,190.9091887489522,138.05935841472228,191.79807763784112,137.12602508138895,192.55363319339665C137.5704695258334,193.26474430450776,139.83713619250005,191.75363319339664,140.50380285916674,192.02029986006335C140.50380285916674,192.02029986006335,140.50380285916674,192.02029986006335,140.50380285916674,192.02029986006335M147.4815806369445,187.84252208228554C147.92602508138896,186.02029986006335,149.0371361925001,182.24252208228552,150.3704695258334,181.88696652672996C150.54824730361116,181.93141097117444,151.43713619250008,182.73141097117445,150.8593584147223,183.48696652673C150.10380285916676,184.46474430450775,149.5704695258334,186.02029986006335,149.25935841472227,188.1091887489522C150.41491397027784,188.46474430450775,151.4815806369445,187.79807763784112,152.50380285916674,188.33141097117442C153.12602508138895,188.33141097117442,153.4815806369445,188.46474430450775,153.4815806369445,188.73141097117445C153.43713619250008,189.5758554156189,151.52602508138898,189.5314109711744,150.9482473036112,189.75363319339664C150.50380285916674,189.79807763784112,148.90380285916672,189.75363319339664,148.54824730361116,190.1980776378411C148.10380285916676,191.26474430450776,148.3704695258334,193.17585541561886,147.6593584147223,194.55363319339665C146.72602508138897,194.42029986006332,146.50380285916674,194.59807763784113,146.50380285916674,193.6647443045078C146.50380285916674,193.26474430450776,146.59269174805564,192.06474430450777,146.8593584147223,190.06474430450777C146.1926917480556,189.48696652673,143.25935841472227,190.46474430450775,143.43713619250008,188.86474430450778C143.61491397027783,187.17585541561886,146.59269174805564,189.13141097117443,147.4815806369445,187.84252208228554C147.4815806369445,187.84252208228554,147.4815806369445,187.84252208228554,147.4815806369445,187.84252208228554M152.50380285916674,191.97585541561887C152.50380285916674,189.39807763784108,154.77046952583345,188.8202998600633,157.39269174805565,188.68696652672998C158.8593584147223,188.64252208228555,159.39269174805565,189.39807763784108,160.01491397027786,190.24252208228552C160.05935841472228,190.86474430450778,160.10380285916676,191.97585541561887,159.70380285916673,192.1091887489522C158.63713619250007,192.02029986006335,156.45935841472232,192.68696652672998,155.30380285916675,192.59807763784113C155.21491397027785,192.68696652672998,155.21491397027785,192.73141097117445,155.21491397027785,192.73141097117445C155.21491397027785,192.86474430450778,155.7482473036112,193.08696652673,156.8593584147223,193.39807763784108C157.79269174805563,193.39807763784108,159.92602508138896,193.79807763784112,158.2371361925001,194.3758554156189C157.8371361925001,194.9980776378411,156.72602508138897,194.64252208228555,155.7482473036112,194.64252208228555C154.54824730361122,194.42029986006332,152.50380285916674,193.39807763784108,152.50380285916674,191.97585541561887C152.50380285916674,191.97585541561887,152.50380285916674,191.97585541561887,152.50380285916674,191.97585541561887M157.79269174805563,189.97585541561887C156.81491397027787,190.06474430450777,154.77046952583345,190.1980776378411,154.90380285916677,191.13141097117443C155.97046952583344,191.04252208228553,157.8371361925001,191.35363319339666,158.4149139702779,190.86474430450778C158.19269174805567,190.28696652673,158.3704695258334,190.28696652673,157.79269174805563,189.97585541561887C157.79269174805563,189.97585541561887,157.79269174805563,189.97585541561887,157.79269174805563,189.97585541561887M170.3704695258334,185.5758554156189C170.3704695258334,184.02029986006335,169.61491397027783,180.64252208228555,171.43713619250008,181.39807763784108C171.7482473036112,185.22029986006334,171.34824730361117,186.68696652672998,171.43713619250008,190.15363319339667C171.25935841472227,190.24252208228552,171.08158063694452,191.08696652673,170.63713619250007,190.86474430450778C167.88158063694453,190.55363319339665,163.79269174805563,190.50918874895223,162.41491397027784,192.15363319339667C162.68158063694455,192.9091887489522,163.6593584147223,193.30918874895224,164.68158063694455,193.30918874895224C165.39269174805565,193.30918874895224,169.12602508138895,192.64252208228555,170.54824730361116,192.50918874895223C170.8593584147223,192.73141097117445,170.2815806369445,193.39807763784108,170.10380285916676,193.48696652673C169.0371361925001,193.84252208228554,164.68158063694455,195.35363319339666,162.8593584147223,194.59807763784113C161.43713619250008,194.3758554156189,160.10380285916676,192.24252208228552,161.25935841472227,191.04252208228553C162.81491397027787,189.39807763784108,166.50380285916674,188.9980776378411,170.05935841472228,189.13141097117443C170.10380285916676,188.15363319339667,170.3704695258334,186.95363319339668,170.3704695258334,185.5758554156189C170.3704695258334,185.5758554156189,170.3704695258334,185.5758554156189,170.3704695258334,185.5758554156189" style="-webkit-tap-highlight-color: rgba(0, 0, 0, 0);"></path><path fill="none" stroke="#000000" d="M186.9364334959775,196.85240289011142C54.74192102316169,202.28227479924956,86.52413008269565,192.08270583711362,50.412633594973045,196.2457383006309" stroke-width="2" marker-end="url(#raphael-marker-endblock55-obj3199)" stroke-dasharray="6,2" style="-webkit-tap-highlight-color: rgba(0, 0, 0, 0);"></path></svg>